<!-- 발바닥 대안 — tall (발바닥 가로세로비 1.05, 거의 정사각).
     **이 파일은 사이트에서 쓰이지 않는다.** 기본값은 deco-paw.svg(비 1.29) 이고,
     이건 고를 수 있는 대안으로만 보관한다. 채택하려면 아래 좌표를 deco-paw.svg 와
     index.html · landing.html 의 인라인 mk-paw 심볼 세 곳에 복제하면 된다.

     내력: 2026-07-17 에 처음 배포된 도형이다. 발가락/발바닥 폭비를 개(0.33)에서
     고양이(0.44)로 고친 결과물이지만, 발바닥이 33.6×32.0 으로 거의 정사각이라
     실제 고양이 메인 패드(비 1.2~1.4)보다 세로가 길다. 그래서 기본값에서 내렸다.

     세 안의 차이는 발바닥 세로 길이 하나뿐이다 — 발가락 크기와 발바닥 폭은 같다.
     실제 렌더 크기 비교는 paw-shape-compare.html 에 있다. -->
<svg xmlns="http://www.w3.org/2000/svg" viewBox="0 0 64 64" fill="currentColor">
  <!-- 발가락과 발바닥 사이 여백 실측 최소 2.9. 같은 fill 이라 닿으면 union 으로
       뭉쳐 발가락이 사라지므로, 좌표를 손대면 이 값을 다시 재야 한다. -->
  <ellipse cx="22.4" cy="14.6" rx="7.4" ry="9.1" transform="rotate(-7 22.4 14.6)"/>
  <ellipse cx="41.6" cy="14.6" rx="7.4" ry="9.1" transform="rotate(7 41.6 14.6)"/>
  <ellipse cx="9.2"  cy="30.3" rx="7.4" ry="9.1" transform="rotate(-34 9.2 30.3)"/>
  <ellipse cx="54.8" cy="30.3" rx="7.4" ry="9.1" transform="rotate(34 54.8 30.3)"/>
  <!-- 발바닥 33.6 × 32.0 · 비 1.05 -->
  <path d="M32 26.4C35.3 27.8 40.4 29.8 43.2 34.1C46.3 38.7 48.9 42.6 48.8 47.5C48.7 53.3 45.6 58 40.6 58.4C37.2 58.6 34.2 57.7 32 56.1C29.8 57.7 26.8 58.6 23.4 58.4C18.4 58 15.3 53.3 15.2 47.5C15.1 42.6 17.7 38.7 20.8 34.1C23.6 29.8 28.7 27.8 32 26.4Z"/>
</svg>
